<svg xmlns="http://www.w3.org/2000/svg" viewBox="0 0 120 120" fill="none">
  <rect width="120" height="120" rx="24" fill="#5865F2"/>
  <path d="M82.5 40.2A56.2 56.2 0 0068.3 35a42.3 42.3 0 00-1.8 3.7 52 52 0 00-15.6 0c-.5-1.3-1.1-2.5-1.8-3.7a56 56 0 00-14.2 5.2C24.2 56.3 21.7 72 23 87.4a57 57 0 0017.4 8.8 43 43 0 003.7-6 36.5 36.5 0 01-5.8-2.8l1.4-1.1a40.5 40.5 0 0034.6 0l1.4 1.1a37 37 0 01-5.8 2.8 43 43 0 003.7 6 56.8 56.8 0 0017.4-8.8c1.5-17-2.6-31.7-10.5-44.2zM46 78.8c-3.8 0-7-3.5-7-7.8s3-7.9 7-7.9 7.1 3.6 7 7.9c0 4.3-3.1 7.8-7 7.8zm28 0c-3.8 0-7-3.5-7-7.8s3-7.9 7-7.9 7 3.6 7 7.9c0 4.3-3.1 7.8-7 7.8z" fill="white"/>
</svg>
